<svg width="1200" height="800" viewBox="0 0 1200 800" fill="none" xmlns="http://www.w3.org/2000/svg">
  <rect width="1200" height="800" fill="#F4EFE6"/>
  <rect x="56" y="56" width="1088" height="688" rx="42" fill="url(#bg)"/>
  <circle cx="927" cy="204" r="68" fill="#F7C873" fill-opacity="0.92"/>
  <path d="M124 596C220 493 319 446 421 456C529 467 596 541 702 547C812 554 885 465 968 454C1036 444 1091 472 1134 510V692H124V596Z" fill="#DCE7D7"/>
  <rect x="182" y="345" width="104" height="247" rx="12" fill="#B76548"/>
  <rect x="308" y="285" width="135" height="307" rx="12" fill="#1F3C4D"/>
  <rect x="470" y="391" width="86" height="201" rx="12" fill="#F0E1CD"/>
  <rect x="582" y="252" width="118" height="340" rx="12" fill="#D99058"/>
  <rect x="724" y="326" width="94" height="266" rx="12" fill="#8FA7A0"/>
  <rect x="844" y="214" width="150" height="378" rx="12" fill="#234B5E"/>
  <rect x="1018" y="368" width="74" height="224" rx="12" fill="#F0E1CD"/>
  <path d="M146 625H1110" stroke="#1F3C4D" stroke-width="10" stroke-linecap="round" stroke-opacity="0.22"/>
  <g fill="#F4EFE6" fill-opacity="0.9">
    <rect x="204" y="376" width="16" height="16" rx="4"/>
    <rect x="232" y="376" width="16" height="16" rx="4"/>
    <rect x="204" y="408" width="16" height="16" rx="4"/>
    <rect x="232" y="408" width="16" height="16" rx="4"/>
    <rect x="337" y="314" width="18" height="18" rx="4"/>
    <rect x="369" y="314" width="18" height="18" rx="4"/>
    <rect x="401" y="314" width="18" height="18" rx="4"/>
    <rect x="337" y="350" width="18" height="18" rx="4"/>
    <rect x="369" y="350" width="18" height="18" rx="4"/>
    <rect x="401" y="350" width="18" height="18" rx="4"/>
    <rect x="612" y="281" width="16" height="16" rx="4"/>
    <rect x="642" y="281" width="16" height="16" rx="4"/>
    <rect x="612" y="313" width="16" height="16" rx="4"/>
    <rect x="642" y="313" width="16" height="16" rx="4"/>
    <rect x="875" y="244" width="18" height="18" rx="4"/>
    <rect x="907" y="244" width="18" height="18" rx="4"/>
    <rect x="939" y="244" width="18" height="18" rx="4"/>
    <rect x="875" y="278" width="18" height="18" rx="4"/>
    <rect x="907" y="278" width="18" height="18" rx="4"/>
    <rect x="939" y="278" width="18" height="18" rx="4"/>
  </g>
  <defs>
    <linearGradient id="bg" x1="126" y1="110" x2="1087" y2="742" gradientUnits="userSpaceOnUse">
      <stop stop-color="#F8F2E7"/>
      <stop offset="1" stop-color="#E8F0EA"/>
    </linearGradient>
  </defs>
</svg>
